<?xml version="1.0" encoding="UTF-8" standalone="no"?>
<svg
   xmlns:dc="http://purl.org/dc/elements/1.1/"
   xmlns:cc="http://creativecommons.org/ns#"
   xmlns:rdf="http://www.w3.org/1999/02/22-rdf-syntax-ns#"
   xmlns:svg="http://www.w3.org/2000/svg"
   xmlns="http://www.w3.org/2000/svg"
   xmlns:sodipodi="http://sodipodi.sourceforge.net/DTD/sodipodi-0.dtd"
   xmlns:inkscape="http://www.inkscape.org/namespaces/inkscape"
   version="1.0"
   width="512.000000pt"
   height="512.000000pt"
   viewBox="0 0 512.000000 512.000000"
   preserveAspectRatio="xMidYMid meet"
   id="svg10"
   sodipodi:docname="coding.svg"
   inkscape:version="1.0.1 (3bc2e813f5, 2020-09-07)">
  <metadata
     id="metadata16">
    <rdf:RDF>
      <cc:Work
         rdf:about="">
        <dc:format>image/svg+xml</dc:format>
        <dc:type
           rdf:resource="http://purl.org/dc/dcmitype/StillImage" />
      </cc:Work>
    </rdf:RDF>
  </metadata>
  <defs
     id="defs14" />
  <sodipodi:namedview
     pagecolor="#ffffff"
     bordercolor="#666666"
     borderopacity="1"
     objecttolerance="10"
     gridtolerance="10"
     guidetolerance="10"
     inkscape:pageopacity="0"
     inkscape:pageshadow="2"
     inkscape:window-width="845"
     inkscape:window-height="480"
     id="namedview12"
     showgrid="false"
     inkscape:zoom="0.38196791"
     inkscape:cx="341.33333"
     inkscape:cy="341.33333"
     inkscape:window-x="0"
     inkscape:window-y="0"
     inkscape:window-maximized="0"
     inkscape:current-layer="g8" />
  <g
     transform="translate(0.000000,512.000000) scale(0.100000,-0.100000)"
     fill="#000000"
     stroke="none"
     id="g8">
    <path
       d="M2748 4570 c-41 -22 -76 -66 -89 -113 -4 -18 -135 -858 -289 -1867 -197 -1287 -280 -1852 -277 -1892 13 -204 314 -233 368 -35 4 18 135 858 289 1867 197 1287 280 1852 277 1892 -4 66 -37 117 -97 149 -46 25 -133 24 -182 -1z"
       id="path2"
       style="fill:#1565c0;fill-opacity:1" />
    <path
       d="M1331 4000 c-18 -4 -45 -17 -60 -27 -14 -11 -299 -308 -632 -661 -439 -464 -611 -652 -623 -682 -21 -52 -20 -95 3 -146 12 -26 203 -237 541 -595 775 -822 722 -772 816 -772 140 0 235 154 169 275 -11 20 -258 289 -550 598 -291 308 -530 565 -530 570 0 5 239 262 530 570 292 309 539 578 550 598 75 137 -60 308 -214 272z"
       id="path4"
       style="fill:#1565c0;fill-opacity:1" />
    <path
       d="M3704 4000 c-120 -28 -186 -167 -129 -272 11 -20 259 -289 550 -598 292 -308 530 -565 530 -570 0 -5 -238 -262 -530 -570 -360 -382 -537 -577 -553 -608 -59 -121 34 -265 172 -265 94 0 43 -48 816 772 337 358 529 569 541 595 24 52 24 100 0 152 -12 26 -204 237 -541 595 -610 647 -696 736 -730 753 -35 18 -89 25 -126 16z"
       id="path6"
       style="fill:#1565c0;fill-opacity:1" />
  </g>
</svg>
