<?xml version="1.0" encoding="UTF-8" standalone="no"?>
<svg
   xmlns:dc="http://purl.org/dc/elements/1.1/"
   xmlns:cc="http://creativecommons.org/ns#"
   xmlns:rdf="http://www.w3.org/1999/02/22-rdf-syntax-ns#"
   xmlns:svg="http://www.w3.org/2000/svg"
   xmlns="http://www.w3.org/2000/svg"
   xmlns:sodipodi="http://sodipodi.sourceforge.net/DTD/sodipodi-0.dtd"
   xmlns:inkscape="http://www.inkscape.org/namespaces/inkscape"
   version="1.0"
   width="512.000000pt"
   height="512.000000pt"
   viewBox="0 0 512.000000 512.000000"
   preserveAspectRatio="xMidYMid meet"
   id="svg12"
   sodipodi:docname="data-science.svg"
   inkscape:version="1.0.1 (3bc2e813f5, 2020-09-07)">
  <metadata
     id="metadata18">
    <rdf:RDF>
      <cc:Work
         rdf:about="">
        <dc:format>image/svg+xml</dc:format>
        <dc:type
           rdf:resource="http://purl.org/dc/dcmitype/StillImage" />
      </cc:Work>
    </rdf:RDF>
  </metadata>
  <defs
     id="defs16" />
  <sodipodi:namedview
     pagecolor="#ffffff"
     bordercolor="#666666"
     borderopacity="1"
     objecttolerance="10"
     gridtolerance="10"
     guidetolerance="10"
     inkscape:pageopacity="0"
     inkscape:pageshadow="2"
     inkscape:window-width="828"
     inkscape:window-height="480"
     id="namedview14"
     showgrid="false"
     inkscape:zoom="0.36486486"
     inkscape:cx="433.51162"
     inkscape:cy="89.020445"
     inkscape:window-x="0"
     inkscape:window-y="0"
     inkscape:window-maximized="0"
     inkscape:current-layer="svg12" />
  <g
     transform="translate(0.000000,512.000000) scale(0.100000,-0.100000)"
     fill="#000000"
     stroke="none"
     id="g10"
     style="fill:#1565c0;fill-opacity:1">
    <path
       d="M2479 4940 c-224 -40 -446 -254 -610 -587 -28 -57 -54 -103 -57 -103 -4 0 -49 13 -100 30 -250 79 -548 119 -740 101 -208 -21 -352 -80 -461 -189 -115 -116 -161 -240 -161 -432 1 -189 44 -347 160 -585 83 -169 166 -302 300 -481 l101 -134 -79 -102 c-308 -399 -482 -796 -482 -1098 0 -190 48 -318 161 -432 193 -193 553 -244 1004 -142 66 15 258 68 289 80 10 4 29 -25 65 -98 80 -163 163 -282 270 -389 146 -146 265 -203 421 -203 157 0 270 54 416 199 113 111 193 225 275 392 28 57 51 103 52 103 1 0 54 -15 118 -34 172 -51 417 -96 520 -96 47 0 79 27 79 68 0 46 -29 63 -122 73 -156 17 -352 59 -500 106 l-46 15 34 101 c65 190 124 457 170 768 4 29 19 47 82 102 103 89 289 270 395 385 l86 93 103 -138 c102 -137 103 -138 143 -138 32 0 42 5 54 26 8 15 11 36 8 51 -4 14 -54 89 -112 167 l-106 141 79 102 c237 308 406 637 463 903 23 110 25 274 4 364 -101 427 -583 563 -1296 367 -68 -19 -131 -37 -140 -41 -13 -5 -27 15 -68 97 -80 163 -163 282 -270 389 -53 53 -118 109 -145 124 -111 65 -252 94 -357 75z m250 -176 c139 -69 272 -226 389 -460 l51 -101 -127 -53 c-70 -29 -207 -93 -305 -142 l-177 -90 -193 96 c-164 81 -282 134 -393 176 l-24 10 51 102 c139 278 309 456 475 498 74 18 171 4 253 -36z m-1514 -524 c134 -13 314 -49 451 -91 l102 -32 -34 -100 c-66 -197 -124 -447 -159 -692 -13 -90 -19 -113 -38 -128 -82 -67 -340 -316 -427 -412 l-105 -115 -27 33 c-15 17 -63 82 -106 142 -257 360 -384 660 -385 910 -1 159 37 260 132 348 125 117 322 162 596 137z m3041 -15 c159 -33 298 -139 344 -262 103 -276 -36 -689 -393 -1173 l-89 -119 -203 207 c-111 114 -237 236 -279 271 -69 59 -76 69 -81 110 -33 246 -99 544 -162 738 -21 62 -34 115 -31 119 12 12 242 74 350 95 212 40 393 45 544 14z m-2146 -242 c58 -25 150 -68 205 -96 93 -46 98 -50 80 -64 -11 -7 -101 -67 -200 -132 -99 -65 -247 -168 -328 -230 -135 -102 -148 -109 -143 -84 3 15 15 78 26 138 34 175 122 506 147 547 4 8 57 -11 213 -79z m1148 -24 c41 -128 85 -305 116 -467 14 -72 26 -134 26 -137 0 -3 -64 44 -143 103 -135 103 -413 292 -504 343 -24 13 -43 26 -43 30 0 18 499 243 512 230 3 -3 20 -49 36 -102z m-585 -271 c211 -127 370 -238 603 -420 l152 -119 6 -67 c33 -340 33 -704 0 -1044 l-6 -67 -147 -116 c-80 -63 -207 -157 -281 -209 -143 -100 -423 -276 -439 -276 -13 0 -216 123 -333 201 -135 91 -256 179 -404 297 l-132 105 -6 66 c-33 350 -33 692 0 1042 l6 66 132 105 c208 166 372 280 671 465 28 18 56 32 63 32 7 1 59 -27 115 -61z m-1145 -906 c-8 -158 -8 -286 0 -444 6 -123 9 -225 7 -227 -5 -5 -353 345 -399 402 l-38 47 48 58 c54 63 385 395 389 390 2 -2 -1 -103 -7 -226z m2332 -41 c65 -70 128 -139 140 -154 l22 -28 -58 -67 c-67 -76 -375 -385 -380 -380 -2 2 2 87 7 188 10 175 6 539 -8 660 l-6 55 82 -74 c46 -41 136 -131 201 -200z m-2358 -787 l57 -50 16 -109 c37 -247 89 -480 153 -673 31 -96 34 -114 22 -122 -23 -14 -226 -68 -337 -90 -387 -75 -668 -31 -816 129 -225 244 -104 727 325 1303 l80 106 221 -223 c122 -122 248 -244 279 -271z m668 -509 c85 -56 174 -113 197 -126 24 -13 43 -27 43 -30 0 -19 -505 -246 -514 -231 -24 41 -113 373 -146 547 -11 61 -23 123 -26 138 -5 25 8 18 143 -84 81 -61 218 -158 303 -214z m1205 184 c-41 -209 -132 -548 -153 -571 -15 -15 -519 213 -508 230 3 5 63 45 133 89 139 88 366 247 478 336 39 30 71 54 73 52 1 -1 -9 -62 -23 -136z m-645 -512 c141 -71 308 -147 413 -186 l28 -11 -61 -119 c-118 -231 -245 -378 -389 -449 -69 -34 -82 -37 -161 -37 -80 0 -92 3 -165 39 -144 71 -274 225 -393 462 l-51 101 157 67 c86 37 220 100 297 140 77 41 145 74 150 75 6 0 85 -36 175 -82z"
       id="path2"
       style="fill:#1565c0;fill-opacity:1" />
    <path
       d="M2415 3200 c-77 -13 -160 -37 -208 -62 -60 -30 -125 -96 -137 -137 -6 -22 -10 -208 -10 -467 l0 -431 23 -44 c59 -112 238 -179 477 -179 239 0 418 67 477 179 l23 44 0 434 c0 478 0 475 -63 541 -72 76 -215 121 -402 127 -66 2 -147 0 -180 -5z m299 -145 c131 -25 217 -75 197 -114 -13 -23 -97 -63 -171 -82 -35 -9 -105 -14 -190 -13 -117 1 -146 5 -216 27 -75 25 -134 63 -134 86 0 13 50 48 97 67 100 42 284 55 417 29z m-418 -314 c182 -57 422 -47 611 26 11 5 14 -5 11 -48 -3 -49 -6 -55 -43 -81 -131 -91 -499 -91 -630 0 -37 26 -40 32 -43 81 -3 43 0 53 11 48 8 -3 45 -15 83 -26z m104 -300 c143 -24 324 -10 453 33 l67 22 0 -48 c0 -70 -35 -100 -160 -134 -91 -25 -309 -25 -400 0 -126 35 -160 64 -160 135 l0 49 68 -23 c37 -13 96 -29 132 -34z m-156 -235 c160 -67 472 -67 632 0 18 8 36 14 39 14 3 0 5 -22 5 -49 0 -42 -4 -53 -30 -74 -16 -14 -60 -36 -97 -49 -61 -20 -86 -23 -233 -23 -147 0 -172 3 -233 23 -37 13 -81 35 -97 49 -26 21 -30 32 -30 74 0 27 2 49 5 49 3 0 21 -6 39 -14z"
       id="path4"
       style="fill:#1565c0;fill-opacity:1" />
    <path
       d="M4550 1872 c-12 -10 -22 -29 -22 -42 -1 -41 82 -273 104 -292 28 -25 61 -22 88 7 23 24 23 29 13 78 -17 78 -73 227 -94 248 -24 24 -60 24 -89 1z"
       id="path6"
       style="fill:#1565c0;fill-opacity:1" />
    <path
       d="M4608 1148 c-8 -7 -25 -29 -36 -49 -12 -20 -49 -61 -82 -93 -53 -49 -61 -61 -58 -88 4 -40 44 -72 80 -63 57 14 186 158 203 226 14 54 -63 102 -107 67z"
       id="path8"
       style="fill:#1565c0;fill-opacity:1" />
  </g>
</svg>
